# xmcd
#
# Track frame offsets:
#	150
#	19015
#	34328
#	52770
#	72668
#	88255
#	106750
#	124495
#	142575
#	164198
#
# Disc length: 2450 seconds
#
# Revision: 2
# Processed by: cddbd v1.5.2PL0 Copyright (c) Steve Scherf et al.
# Submitted via: audiograbber 1.83.01
#
DISCID=8a09900a
DTITLE=Lourdes Robles - Amaneciendo En Ti
DYEAR=1993
DGENRE=Latin
TTITLE0=Donde Se Ha Ido Tu Amor
TTITLE1=Se Te Nota
TTITLE2=Amaneciendo En Ti
TTITLE3=Baila Con La Noche (Dancing In The Sunshine)
TTITLE4=Lo Amo
TTITLE5=Dejalo Ir Conmigo
TTITLE6=Busco El Amor
TTITLE7=Dejame Sentirte
TTITLE8=Debil Del Alma
TTITLE9=Si Te Vas
EXTD=
EXTT0=
EXTT1=
EXTT2=
EXTT3=Dancing In The Sunshine
EXTT4=
EXTT5=
EXTT6=
EXTT7=
EXTT8=
EXTT9=
PLAYORDER=
